:SAMPLES-PER-SECOND 30
:FULLY-SPECIFIED
:DEGREES
137
root  9.84182 31.5397 3.27572 -162.562 -85.8233 171.336
RightUpLeg  -43.3888 3.41868 -2.33567
RightLeg  73.9868 -0.133952 -1.60283
RightFoot  -37.7005 -0.0968513 0.689202
RightToes  -3.31784e-009 0 -3.6325e-017
Spine  49.9609 -1.06264 4.20956
Spine1  -13.9039 0.861542 -2.80355
HEad  -59.2988 -3.7192 -7.84448
LeftShoulder1  1.29407 -3.88623 -10.161
LeftArm  -31.5456 -53.4684 -39.8471
LeftForeArm  28.3963 -53.7976 -13.0358
LeftHand  -0.0419703 4.91768 4.92369
RightShoulder  0.874065 1.01603 12.323
RightArm  -29.0724 59.7129 30.7892
RightForeArm  20.5563 56.9455 15.6496
RightHand  -2.45842 19.1303 -12.0134
LeftUpLeg  -44.482 -2.51567 2.64568
LeftLeg  74.3165 2.97281 13.1034
LeftFoot  -34.201 -0.967414 -5.80596
LeftToes  1.28511e-009 -3.60458e-011 6.16399e-011
138
root  7.77917 33.2089 3.1884 -157.98 -85.4802 165.459
RightUpLeg  -33.856 1.89703 -2.60187
RightLeg  65.6853 0.174269 -0.19913
RightFoot  -36.204 -0.0937214 0.654075
RightToes  -3.31784e-009 0 -3.6325e-017
Spine  44.9378 -0.367335 3.36975
Spine1  -12.5877 1.04189 -2.00724
HEad  -56.7583 -3.04853 -8.71795
LeftShoulder1  0.814088 -2.67941 -5.30797
LeftArm  -43.4905 -55.3078 -31.5618
LeftForeArm  36.7098 -63.9119 -19.6536
LeftHand  -0.0321099 5.18808 5.54594
RightShoulder  0.621954 1.00023 6.0852
RightArm  -41.451 59.1956 24.0703
RightForeArm  28.1432 66.208 23.5418
RightHand  -2.13485 16.2697 -11.7937
LeftUpLeg  -34.6195 -0.397293 1.57379
LeftLeg  65.6732 4.11261 10.5807
LeftFoot  -33.234 -0.837136 -5.32317
LeftToes  1.28511e-009 -3.60458e-011 6.16399e-011
139
root  5.25584 35.4645 3.11388 -157.831 -84.5101 164.38
RightUpLeg  -22.6472 -0.170797 -3.42005
RightLeg  53.0939 2.14075 2.47174
RightFoot  -30.7359 0.0250775 1.21489
RightToes  -3.31784e-009 0 -3.6325e-017
Spine  39.5232 -0.107039 3.69316
Spine1  -12.8213 1.36786 -3.29912
HEad  -51.6142 -2.4465 -9.77275
LeftShoulder1  0.476563 -1.30377 -1.72639
LeftArm  -51.328 -52.1391 -24.7431
LeftForeArm  51.6716 -73.1817 -32.7167
LeftHand  -0.011969 5.66245 5.45893
RightShoulder  0.441737 0.691754 2.41143
RightArm  -45.9204 54.9271 21.3215
RightForeArm  43.5585 74.6227 39.6274
RightHand  -1.85511 14.7666 -11.0602
LeftUpLeg  -23.2575 3.55588 1.31712
LeftLeg  53.2244 3.577 5.80941
LeftFoot  -27.8331 -0.680429 -5.73545
LeftToes  1.28511e-009 -3.60458e-011 6.16399e-011
140
root  2.31699 38.2956 2.96665 -157.837 -82.5497 164.342
RightUpLeg  -10.6085 -1.59644 -5.50426
RightLeg  35.7801 7.52373 5.48547
RightFoot  -18.1941 0.136597 6.23681
RightToes  -3.31784e-009 0 -3.6325e-017
Spine  31.9617 0.995684 3.64655
Spine1  -12.3587 2.34326 -4.61759
HEad  -41.9176 -0.972188 -10.8556
LeftShoulder1  0.347827 -0.529299 -0.269588
LeftArm  -55.3091 -45.9435 -21.3055
LeftForeArm  75.8802 -79.2405 -59.6017
LeftHand  -0.0219598 5.43971 5.39669
RightShoulder  0.371702 0.0960848 2.16531
RightArm  -45.1084 49.9864 18.8618
RightForeArm  76.1213 79.5993 71.2074
RightHand  -1.60521 12.5417 -10.7507
LeftUpLeg  -11.3685 10.4405 2.1519
LeftLeg  36.9043 -1.26257 -0.428212
LeftFoot  -13.9238 0.0287256 -9.5847
LeftToes  1.28511e-009 -3.60458e-011 6.16399e-011
141
root  -0.684123 41.2594 2.71085 -157.862 -81.9298 165.808
RightUpLeg  -1.2389 -4.77148 -7.14118
RightLeg  17.5637 13.1471 4.38201
RightFoot  4.30959 -2.68987 17.7742
RightToes  -3.31784e-009 0 -3.6325e-017
Spine  21.6308 1.92311 2.94265
Spine1  -9.47495 2.84987 -3.69818
HEad  -27.0299 -0.517228 -14.1947
LeftShoulder1  0.193895 1.491 -1.36342
LeftArm  -59.7424 -40.966 -15.3515
LeftForeArm  101.284 -80.5829 -87.6141
LeftHand  -0.0161528 5.59442 4.85069
RightShoulder  0.220261 -1.14877 0.744007
RightArm  -42.6913 43.3813 18.0512
RightForeArm  116.393 79.4418 111.271
RightHand  -1.43239 11.1396 -10.4217
LeftUpLeg  -3.08168 16.2202 4.3149
LeftLeg  21.1396 -6.72357 -2.92609
LeftFoot  10.8075 2.8889 -15.5674
LeftToes  1.28511e-009 -3.60458e-011 6.16399e-011
142
root  -3.13074 43.9641 2.46735 -151.483 -82.9773 160.176
RightUpLeg  2.24479 -10.7851 -8.79071
RightLeg  10.0316 14.513 2.29917
RightFoot  25.0154 -8.28659 26.0657
RightToes  -3.31784e-009 0 -3.6325e-017
Spine  16.2523 1.88664 1.71106
Spine1  -8.99877 2.42986 -2.85086
HEad  -16.7965 -0.803821 -16.5555
LeftShoulder1  -0.0329755 3.85979 -1.6966
LeftArm  -63.473 -36.3001 -9.66838
LeftForeArm  107.051 -80.4167 -95.3231
LeftHand  -0.0436529 4.86704 4.50153
RightShoulder  0.0530608 -2.88682 -0.0732249
RightArm  -42.1506 34.8174 14.0597
RightForeArm  136.674 75.8372 135.595
RightHand  -1.38283 9.63494 -11.0237
LeftUpLeg  -1.40908 17.2231 5.09745
LeftLeg  16.5367 -5.04327 -1.82129
LeftFoot  31.3979 5.08827 -13.3389
LeftToes  1.28511e-009 -3.60458e-011 6.16399e-011
143
root  -4.69468 46.2043 2.37628 -151.828 -83.4985 160.365
RightUpLeg  -2.20606 -11.265 -8.70896
RightLeg  22.0427 13.1198 5.8486
RightFoot  23.6871 -7.01947 22.5377
RightToes  -3.31784e-009 0 -3.6325e-017
Spine  17.2702 2.09211 2.70974
Spine1  -10.9769 2.84954 -3.70839
HEad  -14.7432 -4.15622 -21.1187
LeftShoulder1  0.0671416 2.81423 -2.71521
LeftArm  -65.5085 -30.162 -6.19073
LeftForeArm  109.388 -80.4496 -96.5692
LeftHand  -0.0407591 4.39293 2.86719
RightShoulder  0.093982 -2.6765 4.16081
RightArm  -43.7049 26.0046 4.79982
RightForeArm  140.65 72.5709 144.838
RightHand  -1.52788 9.12387 -12.5282
LeftUpLeg  -7.33611 16.7576 5.11639
LeftLeg  30.7136 -5.31446 -3.14416
LeftFoot  25.4016 2.60616 -8.3762
LeftToes  1.28511e-009 -3.60458e-011 6.16399e-011
